{"title":"No.Mans.Land.2013.720p.BluRay.x264-WiKi","uid":11766037,"size":7218231322,"categoryP":"video","categoryS":"hd___movies","magnet":"?xt=urn:btih:d03ad30f7b1248e1abb83944b10150ff31113d07&amp;dn=No.Mans.Land.2013.720p.BluRay.x264-WiKi&amp;tr=udp%3A%2F%2Ftracker.openbittorrent.com%3A80&amp;tr=udp%3A%2F%2Fopen.demonii.com%3A1337&amp;tr=udp%3A%2F%2Ftracker.coppersurfer.tk%3A6969&amp;tr=udp%3A%2F%2Fexodus.desync.com%3A6969","seeders":2,"leechers":6,"uploader":"vickey1992","files":4,"time":1426857547,"description":"\n\nNo.Man's.Land.2013.720p.BluRay.x264-WiKi\n\n\nNAME.................: No Man's Land\nGENRE................: Adventure | Crime | Drama\nRATiNG...............: 7.5/10 (827 votes)\niMDB.................: http://www.imdb.com/title/tt1456660/\nRELEASE DATE.........: 2014-05-18\nENCODE BY............: AdzsC @ WiKi\nRUNTiME..............: 1h:57m:00s\nFiLE SiZE............: 6.67 GiB\nViDEO CODEC..........: x264: 2pass-L4.1 @ 7500 Kbps\nAUDiO CODEC..........: Mandarin DD 5.1 @ 640 Kbps\nSUBTiTLES............: CHS CHT ENG\nFRAMERATE............: 24 fps\nRESOLUTiON...........: 1280x554 (2.3:1)\nSOURCE...............: 1080p Blu-ray AVC DTS-HD MA 5.1-114562175\n\nMediaInfo\n\n\nVideo\nID : 1\nFormat : AVC\nFormat/Info : Advanced Video Codec\nFormat profile : &lt;a class=&quot;__cf_email__&quot; href=&quot;/cdn-cgi/l/email-protection&quot; data-cfemail=&quot;4800212f2008047c6679&quot;&gt;[email&amp;#160;protected]&lt;/a&gt;&lt;script cf-hash='f9e31' type=&quot;text/javascript&quot;&gt;\n/* &lt;![CDATA[ */!function(){try{var t=&quot;currentScript&quot;in document?document.currentScript:function(){for(var t=document.getElementsByTagName(&quot;script&quot;),e=t.length;e--;)if(t[e].getAttribute(&quot;cf-hash&quot;))return t[e]}();if(t&amp;&amp;t.previousSibling){var e,r,n,i,c=t.previousSibling,a=c.getAttribute(&quot;data-cfemail&quot;);if(a){for(e=&quot;&quot;,r=parseInt(a.substr(0,2),16),n=2;a.length-n;n+=2)i=parseInt(a.substr(n,2),16)^r,e+=String.fromCharCode(i);e=document.createTextNode(e),c.parentNode.replaceChild(e,c)}}}catch(u){}}();/* ]]&gt; */&lt;/script&gt;\nFormat settings, CABAC : Yes\nFormat settings, ReFrames : 11 frames\nCodec ID : V_MPEG4/ISO/AVC\nDuration : 1h 57mn\nBit rate : 7 500 Kbps\nWidth : 1 280 pixels\nHeight : 554 pixels\nDisplay aspect ratio : 2.35:1\nFrame rate mode : Constant\nFrame rate : 24.000 fps\nColor space : YUV\nChroma subsampling : 4:2:0\nBit depth : 8 bits\nScan type : Progressive\nBits/(Pixel*Frame) : 0.441\nStream size : 6.02 GiB (90%)\nWriting library : x264 core 136 r2348+704+51 d1baef6 tMod [8-bit@all X86_64]\nEncoding settings : cabac=1 / ref=11 / deblock=1:-2:-2 / analyse=0x3:0x133 / me=umh / subme=11 / psy=1 / fade_compensate=0.00 / psy_rd=1.05:0.10 / mixed_ref=1 / me_range=32 / chroma_me=1 / trellis=2 / 8x8dct=1 / cqm=0 / deadzone=21,11 / fast_pskip=0 / chroma_qp_offset=-3 / threads=12 / lookahead_threads=3 / sliced_threads=0 / nr=0 / decimate=0 / interlaced=0 / bluray_compat=0 / constrained_intra=0 / fgo=0 / bframes=12 / b_pyramid=2 / b_adapt=2 / b_bias=0 / direct=3 / weightb=1 / open_gop=0 / weightp=2 / keyint=250 / keyint_min=24 / scenecut=40 / intra_refresh=0 / rc=2pass / mbtree=0 / bitrate=7500 / ratetol=1.0 / qcomp=0.70 / qpmin=0:0:0 / qpmax=69:69:69 / qpstep=4 / cplxblur=20.0 / qblur=0.5 / ip_ratio=1.40 / pb_ratio=1.30 / aq=1:0.80 / aq-sensitivity=10.00 / aq-factor=1.00:1.00:1.00 / aq2=0 / aq3=0\nLanguage : Chinese\nDefault : Yes\nForced : No\nMatrix coefficients : BT.709\nColor range : Limited\n\nAudio\nID : 2\nFormat : AC-3\nFormat/Info : Audio Coding 3\nMode extension : CM (complete main)\nFormat settings, Endianness : Big\nCodec ID : A_AC3\nDuration : 1h 57mn\nBit rate mode : Constant\nBit rate : 640 Kbps\nChannel(s) : 6 channels\nChannel positions : Front: L C R, Side: L R, LFE\nSampling rate : 48.0 KHz\nBit depth : 16 bits\nCompression mode : Lossy\nStream size : 536 MiB (8%)\nLanguage : Chinese\nDefault : Yes\nForced : No\n\nText #1\nID : 3\nFormat : PGS\nMuxing mode : zlib\nCodec ID : S_HDMV/PGS\nCodec ID/Info : The same subtitle format used on BDs/HD-DVDs\nTitle : CHS\nLanguage : Chinese\nDefault : No\nForced : No\n\nText #2\nID : 4\nFormat : PGS\nMuxing mode : zlib\nCodec ID : S_HDMV/PGS\nCodec ID/Info : The same subtitle format used on BDs/HD-DVDs\nTitle : CHT\nLanguage : Chinese\nDefault : No\nForced : No\n\nText #3\nID : 5\nFormat : PGS\nMuxing mode : zlib\nCodec ID : S_HDMV/PGS\nCodec ID/Info : The same subtitle format used on BDs/HD-DVDs\nLanguage : English\nDefault : No\nForced : No\n\nMenu\n00:00:00.000 : en:00:00:00.000\n00:11:54.000 : en:00:11:54.000\n00:22:16.000 : en:00:22:16.000\n00:36:07.000 : en:00:36:07.000\n00:45:43.000 : en:00:45:43.000\n00:57:40.000 : en:00:57:40.000\n01:09:45.000 : en:01:09:45.000\n01:17:36.000 : en:01:17:36.000\n01:28:53.000 : en:01:28:53.000\n01:41:27.000 : en:01:41:27.000","torrent":{"xt":"urn:btih:d03ad30f7b1248e1abb83944b10150ff31113d07","amp;dn":"No.Mans.Land.2013.720p.BluRay.x264-WiKi","amp;tr":["udp%3A%2F%2Ftracker.openbittorrent.com%3A80","udp%3A%2F%2Fopen.demonii.com%3A1337","udp%3A%2F%2Ftracker.coppersurfer.tk%3A6969","udp%3A%2F%2Fexodus.desync.com%3A6969"],"infoHash":"d03ad30f7b1248e1abb83944b10150ff31113d07","infoHashBuffer":{"type":"Buffer","data":[208,58,211,15,123,18,72,225,171,184,57,68,177,1,80,255,49,17,61,7]},"announce":[],"urlList":[]}}